<svg id="Capa_1" enable-background="new 0 0 512 512" height="512" viewBox="0 0 512 512" width="512" xmlns="http://www.w3.org/2000/svg"><g><g><g><g><g><g><g><circle cx="256" cy="256" fill="#ffce00" r="256"/></g></g></g></g></g></g><path d="m512 256c0-33.87-6.578-66.203-18.525-95.792l-77.503-77.503-50.947 260.752-114.27-114.27-100.659-13.898-73.096 58.434 21.037 120.237 114.337 114.337c14.178 2.434 28.754 3.703 43.626 3.703 141.385 0 256-114.615 256-256z" fill="#ffa300"/><path d="m174.391 199.188c-61.97 0-112.386 50.417-112.386 112.387s50.416 112.385 112.386 112.385 112.387-50.416 112.387-112.386-50.417-112.386-112.387-112.386zm82.387 112.386c0 15.762-4.449 30.503-12.157 43.036l-55.229-45.245v-78.809c38.29 7.072 67.386 40.711 67.386 81.018zm-97.387 81.018c-13.034-2.407-25.003-7.893-35.122-15.672l35.122-28.772zm30-44.445 35.122 28.772c-10.118 7.779-22.087 13.265-35.122 15.672zm-30-117.591v78.809l-55.229 45.245c-7.708-12.533-12.157-27.274-12.157-43.036 0-40.306 29.095-73.946 67.386-81.018z" fill="#707789"/><path d="m371.165 393.796h-120.233c22.041-20.532 35.846-49.795 35.846-82.222 0-61.97-50.417-112.387-112.387-112.387-.013 0-.026 0-.039 0l-.295 194.608v30h.295v.164h.039c2.046 0 196.773-.164 196.773-.164v-29.999zm-181.774-1.204v-44.445l35.122 28.772c-10.119 7.78-22.087 13.266-35.122 15.673zm67.387-81.018c0 15.762-4.449 30.503-12.157 43.036l-55.229-45.245v-78.809c38.29 7.072 67.386 40.711 67.386 81.018z" fill="#555a66"/><g><path d="m371.164 337.1-44.807 16.426 21.363 33.539h46.889l21.363-33.539z" fill="#fff"/></g><g><path d="m415.972 353.526-44.808-16.425-.079.029v49.935h23.524z" fill="#e9edf5"/></g><g><path d="m394.722 386.887h-47.115l23.557 36.909z" fill="#414952"/></g><path d="m371.085 386.887.079 36.909 23.558-36.909z" fill="#23272b"/><g><path d="m326.357 82.705h89.615v270.822h-89.615z" fill="#ff73a5"/></g><g><path d="m371.085 82.705h44.888v270.821h-44.888z" fill="#ff468c"/></g><g><path d="m354.409 82.705h33.511v270.822h-33.511z" fill="#ff5f96"/></g><g><path d="m371.085 82.705h16.836v270.821h-16.836z" fill="#d72878"/></g></g></svg>